<svg width="200" height="200" viewBox="0 0 200 200" fill="none" xmlns="http://www.w3.org/2000/svg">
<rect width="200" height="200" rx="100" fill="#E6E6E6"/>
<mask id="mask0_5_42" style="mask-type:alpha" maskUnits="userSpaceOnUse" x="70" y="70" width="60" height="60">
<rect x="70" y="70" width="60" height="60" fill="#D9D9D9"/>
</mask>
<g mask="url(#mask0_5_42)">
<path d="M100 113.75C103.125 113.75 105.782 112.657 107.97 110.47C110.157 108.282 111.25 105.625 111.25 102.5C111.25 99.375 110.157 96.7183 107.97 94.53C105.782 92.3433 103.125 91.25 100 91.25C96.875 91.25 94.2183 92.3433 92.03 94.53C89.8433 96.7183 88.75 99.375 88.75 102.5C88.75 105.625 89.8433 108.282 92.03 110.47C94.2183 112.657 96.875 113.75 100 113.75ZM80 122.5C78.625 122.5 77.4483 122.011 76.47 121.033C75.49 120.053 75 118.875 75 117.5V87.5C75 86.125 75.49 84.9483 76.47 83.97C77.4483 82.99 78.625 82.5 80 82.5H87.875L92.5 77.5H107.5L112.125 82.5H120C121.375 82.5 122.553 82.99 123.533 83.97C124.511 84.9483 125 86.125 125 87.5V117.5C125 118.875 124.511 120.053 123.533 121.033C122.553 122.011 121.375 122.5 120 122.5H80Z" fill="#B3B5B4"/>
</g>
</svg>
